<mxfile host="app.diagrams.net" modified="2023-05-18T11:34:33.356Z" agent="Mozilla/5.0 (Macintosh; Intel Mac OS X 10_15_7) AppleWebKit/537.36 (KHTML, like Gecko) Chrome/113.0.0.0 Safari/537.36 Edg/113.0.1774.35" etag="0IecCVqpaP20isK3ZJKz" version="21.1.5" type="github">
  <diagram id="C5RBs43oDa-KdzZeNtuy" name="Page-1">
    <mxGraphModel dx="520" dy="791" grid="1" gridSize="10" guides="1" tooltips="1" connect="1" arrows="1" fold="1" page="1" pageScale="1" pageWidth="827" pageHeight="1169" math="0" shadow="0">
      <root>
        <mxCell id="WIyWlLk6GJQsqaUBKTNV-0" />
        <mxCell id="WIyWlLk6GJQsqaUBKTNV-1" parent="WIyWlLk6GJQsqaUBKTNV-0" />
        <mxCell id="EW10OQYBDatXseVUmCqM-0" style="edgeStyle=orthogonalEdgeStyle;rounded=0;orthogonalLoop=1;jettySize=auto;html=1;entryX=0.5;entryY=0;entryDx=0;entryDy=0;" parent="WIyWlLk6GJQsqaUBKTNV-1" source="EW10OQYBDatXseVUmCqM-1" target="EW10OQYBDatXseVUmCqM-6" edge="1">
          <mxGeometry relative="1" as="geometry" />
        </mxCell>
        <mxCell id="EW10OQYBDatXseVUmCqM-1" value="开始" style="ellipse;whiteSpace=wrap;html=1;" parent="WIyWlLk6GJQsqaUBKTNV-1" vertex="1">
          <mxGeometry x="1550" y="301" width="90" height="60" as="geometry" />
        </mxCell>
        <mxCell id="EW10OQYBDatXseVUmCqM-2" value="" style="edgeStyle=orthogonalEdgeStyle;rounded=0;orthogonalLoop=1;jettySize=auto;html=1;" parent="WIyWlLk6GJQsqaUBKTNV-1" source="EW10OQYBDatXseVUmCqM-6" target="EW10OQYBDatXseVUmCqM-8" edge="1">
          <mxGeometry relative="1" as="geometry" />
        </mxCell>
        <mxCell id="EW10OQYBDatXseVUmCqM-3" value="有" style="edgeLabel;html=1;align=center;verticalAlign=middle;resizable=0;points=[];" parent="EW10OQYBDatXseVUmCqM-2" vertex="1" connectable="0">
          <mxGeometry x="-0.1544" y="-1" relative="1" as="geometry">
            <mxPoint as="offset" />
          </mxGeometry>
        </mxCell>
        <mxCell id="EW10OQYBDatXseVUmCqM-4" value="" style="edgeStyle=orthogonalEdgeStyle;rounded=0;orthogonalLoop=1;jettySize=auto;html=1;" parent="WIyWlLk6GJQsqaUBKTNV-1" source="EW10OQYBDatXseVUmCqM-6" edge="1">
          <mxGeometry relative="1" as="geometry">
            <mxPoint x="1800" y="471" as="targetPoint" />
          </mxGeometry>
        </mxCell>
        <mxCell id="EW10OQYBDatXseVUmCqM-5" value="没有" style="edgeLabel;html=1;align=center;verticalAlign=middle;resizable=0;points=[];" parent="EW10OQYBDatXseVUmCqM-4" vertex="1" connectable="0">
          <mxGeometry x="-0.0695" relative="1" as="geometry">
            <mxPoint as="offset" />
          </mxGeometry>
        </mxCell>
        <mxCell id="EW10OQYBDatXseVUmCqM-6" value="判断apcu缓存里是否有A号段最小、最大值数据" style="rhombus;whiteSpace=wrap;html=1;" parent="WIyWlLk6GJQsqaUBKTNV-1" vertex="1">
          <mxGeometry x="1502.5" y="411" width="185" height="120" as="geometry" />
        </mxCell>
        <mxCell id="EW10OQYBDatXseVUmCqM-7" value="" style="edgeStyle=orthogonalEdgeStyle;rounded=0;orthogonalLoop=1;jettySize=auto;html=1;" parent="WIyWlLk6GJQsqaUBKTNV-1" source="EW10OQYBDatXseVUmCqM-8" target="EW10OQYBDatXseVUmCqM-24" edge="1">
          <mxGeometry relative="1" as="geometry" />
        </mxCell>
        <mxCell id="EW10OQYBDatXseVUmCqM-8" value="apcu_add A号段,最小值+1" style="whiteSpace=wrap;html=1;" parent="WIyWlLk6GJQsqaUBKTNV-1" vertex="1">
          <mxGeometry x="1535" y="671" width="120" height="60" as="geometry" />
        </mxCell>
        <mxCell id="EW10OQYBDatXseVUmCqM-9" value="" style="edgeStyle=orthogonalEdgeStyle;rounded=0;orthogonalLoop=1;jettySize=auto;html=1;" parent="WIyWlLk6GJQsqaUBKTNV-1" source="EW10OQYBDatXseVUmCqM-13" target="EW10OQYBDatXseVUmCqM-15" edge="1">
          <mxGeometry relative="1" as="geometry" />
        </mxCell>
        <mxCell id="EW10OQYBDatXseVUmCqM-10" value="抢锁成功" style="edgeLabel;html=1;align=center;verticalAlign=middle;resizable=0;points=[];" parent="EW10OQYBDatXseVUmCqM-9" vertex="1" connectable="0">
          <mxGeometry x="0.0588" y="2" relative="1" as="geometry">
            <mxPoint x="-30" y="2" as="offset" />
          </mxGeometry>
        </mxCell>
        <mxCell id="EW10OQYBDatXseVUmCqM-11" value="" style="edgeStyle=orthogonalEdgeStyle;rounded=0;orthogonalLoop=1;jettySize=auto;html=1;entryX=1;entryY=0.5;entryDx=0;entryDy=0;exitX=0.5;exitY=1;exitDx=0;exitDy=0;" parent="WIyWlLk6GJQsqaUBKTNV-1" source="EW10OQYBDatXseVUmCqM-13" target="EW10OQYBDatXseVUmCqM-8" edge="1">
          <mxGeometry relative="1" as="geometry">
            <mxPoint x="1855" y="581" as="targetPoint" />
            <Array as="points">
              <mxPoint x="1875" y="701" />
            </Array>
          </mxGeometry>
        </mxCell>
        <mxCell id="EW10OQYBDatXseVUmCqM-12" value="否，阻塞直到文件锁释放" style="edgeLabel;html=1;align=center;verticalAlign=middle;resizable=0;points=[];" parent="EW10OQYBDatXseVUmCqM-11" vertex="1" connectable="0">
          <mxGeometry x="-0.1098" y="2" relative="1" as="geometry">
            <mxPoint y="-94" as="offset" />
          </mxGeometry>
        </mxCell>
        <mxCell id="EW10OQYBDatXseVUmCqM-13" value="加文件锁LOCK-1是否成功" style="rhombus;whiteSpace=wrap;html=1;" parent="WIyWlLk6GJQsqaUBKTNV-1" vertex="1">
          <mxGeometry x="1801" y="430" width="149" height="81" as="geometry" />
        </mxCell>
        <mxCell id="EW10OQYBDatXseVUmCqM-14" value="" style="edgeStyle=orthogonalEdgeStyle;rounded=0;orthogonalLoop=1;jettySize=auto;html=1;" parent="WIyWlLk6GJQsqaUBKTNV-1" source="EW10OQYBDatXseVUmCqM-15" target="EW10OQYBDatXseVUmCqM-17" edge="1">
          <mxGeometry relative="1" as="geometry" />
        </mxCell>
        <mxCell id="EW10OQYBDatXseVUmCqM-15" value="请求guid服务端获取新的号段" style="whiteSpace=wrap;html=1;" parent="WIyWlLk6GJQsqaUBKTNV-1" vertex="1">
          <mxGeometry x="2229.89" y="441" width="120" height="60" as="geometry" />
        </mxCell>
        <mxCell id="EW10OQYBDatXseVUmCqM-16" value="" style="edgeStyle=orthogonalEdgeStyle;rounded=0;orthogonalLoop=1;jettySize=auto;html=1;" parent="WIyWlLk6GJQsqaUBKTNV-1" source="EW10OQYBDatXseVUmCqM-17" target="EW10OQYBDatXseVUmCqM-19" edge="1">
          <mxGeometry relative="1" as="geometry" />
        </mxCell>
        <mxCell id="EW10OQYBDatXseVUmCqM-17" value="回写A号段的最小最大值数据到apcu缓存中" style="whiteSpace=wrap;html=1;" parent="WIyWlLk6GJQsqaUBKTNV-1" vertex="1">
          <mxGeometry x="2229.89" y="544" width="120" height="60" as="geometry" />
        </mxCell>
        <mxCell id="EW10OQYBDatXseVUmCqM-18" value="" style="edgeStyle=orthogonalEdgeStyle;rounded=0;orthogonalLoop=1;jettySize=auto;html=1;" parent="WIyWlLk6GJQsqaUBKTNV-1" source="EW10OQYBDatXseVUmCqM-19" target="EW10OQYBDatXseVUmCqM-32" edge="1">
          <mxGeometry relative="1" as="geometry" />
        </mxCell>
        <mxCell id="EW10OQYBDatXseVUmCqM-19" value="释放文件锁" style="whiteSpace=wrap;html=1;" parent="WIyWlLk6GJQsqaUBKTNV-1" vertex="1">
          <mxGeometry x="2229.89" y="642" width="120" height="60" as="geometry" />
        </mxCell>
        <mxCell id="EW10OQYBDatXseVUmCqM-20" value="" style="edgeStyle=orthogonalEdgeStyle;rounded=0;orthogonalLoop=1;jettySize=auto;html=1;entryX=-0.016;entryY=0.501;entryDx=0;entryDy=0;entryPerimeter=0;" parent="WIyWlLk6GJQsqaUBKTNV-1" source="EW10OQYBDatXseVUmCqM-24" target="EW10OQYBDatXseVUmCqM-30" edge="1">
          <mxGeometry relative="1" as="geometry">
            <mxPoint x="1780" y="851" as="targetPoint" />
          </mxGeometry>
        </mxCell>
        <mxCell id="EW10OQYBDatXseVUmCqM-21" value="是" style="edgeLabel;html=1;align=center;verticalAlign=middle;resizable=0;points=[];" parent="EW10OQYBDatXseVUmCqM-20" vertex="1" connectable="0">
          <mxGeometry x="-0.0105" y="1" relative="1" as="geometry">
            <mxPoint as="offset" />
          </mxGeometry>
        </mxCell>
        <mxCell id="EW10OQYBDatXseVUmCqM-22" value="" style="edgeStyle=orthogonalEdgeStyle;rounded=0;orthogonalLoop=1;jettySize=auto;html=1;" parent="WIyWlLk6GJQsqaUBKTNV-1" source="EW10OQYBDatXseVUmCqM-24" edge="1">
          <mxGeometry relative="1" as="geometry">
            <mxPoint x="1595" y="1150" as="targetPoint" />
          </mxGeometry>
        </mxCell>
        <mxCell id="EW10OQYBDatXseVUmCqM-23" value="否" style="edgeLabel;html=1;align=center;verticalAlign=middle;resizable=0;points=[];" parent="EW10OQYBDatXseVUmCqM-22" vertex="1" connectable="0">
          <mxGeometry x="0.0545" y="1" relative="1" as="geometry">
            <mxPoint as="offset" />
          </mxGeometry>
        </mxCell>
        <mxCell id="EW10OQYBDatXseVUmCqM-24" value="判断A号段最小值是否&amp;gt;=阈值，且B号段没有数据" style="rhombus;whiteSpace=wrap;html=1;" parent="WIyWlLk6GJQsqaUBKTNV-1" vertex="1">
          <mxGeometry x="1490" y="791" width="210" height="120" as="geometry" />
        </mxCell>
        <mxCell id="EW10OQYBDatXseVUmCqM-28" style="edgeStyle=orthogonalEdgeStyle;rounded=0;orthogonalLoop=1;jettySize=auto;html=1;" parent="WIyWlLk6GJQsqaUBKTNV-1" source="EW10OQYBDatXseVUmCqM-30" edge="1">
          <mxGeometry relative="1" as="geometry">
            <mxPoint x="1600" y="1051" as="targetPoint" />
            <Array as="points">
              <mxPoint x="1900" y="1051" />
            </Array>
          </mxGeometry>
        </mxCell>
        <mxCell id="EW10OQYBDatXseVUmCqM-29" value="否，非阻塞" style="edgeLabel;html=1;align=center;verticalAlign=middle;resizable=0;points=[];" parent="EW10OQYBDatXseVUmCqM-28" vertex="1" connectable="0">
          <mxGeometry x="-0.215" y="1" relative="1" as="geometry">
            <mxPoint x="-87" y="-2" as="offset" />
          </mxGeometry>
        </mxCell>
        <mxCell id="EW10OQYBDatXseVUmCqM-38" style="edgeStyle=orthogonalEdgeStyle;rounded=0;orthogonalLoop=1;jettySize=auto;html=1;entryX=0;entryY=0.5;entryDx=0;entryDy=0;" parent="WIyWlLk6GJQsqaUBKTNV-1" source="EW10OQYBDatXseVUmCqM-30" target="EW10OQYBDatXseVUmCqM-33" edge="1">
          <mxGeometry relative="1" as="geometry">
            <mxPoint x="2170" y="851" as="targetPoint" />
          </mxGeometry>
        </mxCell>
        <mxCell id="EW10OQYBDatXseVUmCqM-42" value="是" style="edgeLabel;html=1;align=center;verticalAlign=middle;resizable=0;points=[];" parent="EW10OQYBDatXseVUmCqM-38" vertex="1" connectable="0">
          <mxGeometry x="-0.266" y="-3" relative="1" as="geometry">
            <mxPoint x="4" as="offset" />
          </mxGeometry>
        </mxCell>
        <mxCell id="EW10OQYBDatXseVUmCqM-30" value="加文件锁LOCK-2是否成功" style="rhombus;whiteSpace=wrap;html=1;" parent="WIyWlLk6GJQsqaUBKTNV-1" vertex="1">
          <mxGeometry x="1795" y="791" width="210" height="120" as="geometry" />
        </mxCell>
        <mxCell id="EW10OQYBDatXseVUmCqM-32" value="apcu_add A号段，加一，返回唯一的id" style="whiteSpace=wrap;html=1;" parent="WIyWlLk6GJQsqaUBKTNV-1" vertex="1">
          <mxGeometry x="2229.89" y="731" width="120" height="60" as="geometry" />
        </mxCell>
        <mxCell id="EW10OQYBDatXseVUmCqM-36" value="" style="edgeStyle=orthogonalEdgeStyle;rounded=0;orthogonalLoop=1;jettySize=auto;html=1;" parent="WIyWlLk6GJQsqaUBKTNV-1" source="EW10OQYBDatXseVUmCqM-33" target="EW10OQYBDatXseVUmCqM-35" edge="1">
          <mxGeometry relative="1" as="geometry" />
        </mxCell>
        <mxCell id="EW10OQYBDatXseVUmCqM-33" value="请求guid服务端获取新的号段" style="whiteSpace=wrap;html=1;" parent="WIyWlLk6GJQsqaUBKTNV-1" vertex="1">
          <mxGeometry x="2229.89" y="821" width="120" height="60" as="geometry" />
        </mxCell>
        <mxCell id="EW10OQYBDatXseVUmCqM-41" value="" style="edgeStyle=orthogonalEdgeStyle;rounded=0;orthogonalLoop=1;jettySize=auto;html=1;" parent="WIyWlLk6GJQsqaUBKTNV-1" source="EW10OQYBDatXseVUmCqM-35" target="EW10OQYBDatXseVUmCqM-40" edge="1">
          <mxGeometry relative="1" as="geometry" />
        </mxCell>
        <mxCell id="EW10OQYBDatXseVUmCqM-35" value="回写B号段的最小最大值数据到apcu缓存" style="whiteSpace=wrap;html=1;" parent="WIyWlLk6GJQsqaUBKTNV-1" vertex="1">
          <mxGeometry x="2229.89" y="940" width="120" height="60" as="geometry" />
        </mxCell>
        <mxCell id="EW10OQYBDatXseVUmCqM-48" value="" style="edgeStyle=orthogonalEdgeStyle;rounded=0;orthogonalLoop=1;jettySize=auto;html=1;" parent="WIyWlLk6GJQsqaUBKTNV-1" source="EW10OQYBDatXseVUmCqM-40" target="EW10OQYBDatXseVUmCqM-47" edge="1">
          <mxGeometry relative="1" as="geometry" />
        </mxCell>
        <mxCell id="EW10OQYBDatXseVUmCqM-40" value="释放文件锁" style="whiteSpace=wrap;html=1;" parent="WIyWlLk6GJQsqaUBKTNV-1" vertex="1">
          <mxGeometry x="2229.89" y="1050" width="120" height="60" as="geometry" />
        </mxCell>
        <mxCell id="EW10OQYBDatXseVUmCqM-51" value="" style="edgeStyle=orthogonalEdgeStyle;rounded=0;orthogonalLoop=1;jettySize=auto;html=1;" parent="WIyWlLk6GJQsqaUBKTNV-1" source="EW10OQYBDatXseVUmCqM-43" target="EW10OQYBDatXseVUmCqM-50" edge="1">
          <mxGeometry relative="1" as="geometry" />
        </mxCell>
        <mxCell id="EW10OQYBDatXseVUmCqM-52" value="否" style="edgeLabel;html=1;align=center;verticalAlign=middle;resizable=0;points=[];" parent="EW10OQYBDatXseVUmCqM-51" vertex="1" connectable="0">
          <mxGeometry x="-0.0306" relative="1" as="geometry">
            <mxPoint as="offset" />
          </mxGeometry>
        </mxCell>
        <mxCell id="D5kf2ewFrjv8ZklRDmJV-2" value="" style="edgeStyle=orthogonalEdgeStyle;rounded=0;orthogonalLoop=1;jettySize=auto;html=1;" edge="1" parent="WIyWlLk6GJQsqaUBKTNV-1" source="EW10OQYBDatXseVUmCqM-43" target="EW10OQYBDatXseVUmCqM-63">
          <mxGeometry relative="1" as="geometry" />
        </mxCell>
        <mxCell id="EW10OQYBDatXseVUmCqM-43" value="判断A号段最小值是否&amp;gt;=最大值" style="rhombus;whiteSpace=wrap;html=1;" parent="WIyWlLk6GJQsqaUBKTNV-1" vertex="1">
          <mxGeometry x="1490" y="1151" width="210" height="119" as="geometry" />
        </mxCell>
        <mxCell id="EW10OQYBDatXseVUmCqM-47" value="返回A号段里的唯一的id" style="whiteSpace=wrap;html=1;" parent="WIyWlLk6GJQsqaUBKTNV-1" vertex="1">
          <mxGeometry x="2229.89" y="1151" width="120" height="60" as="geometry" />
        </mxCell>
        <mxCell id="EW10OQYBDatXseVUmCqM-50" value="返回A号段里的唯一id" style="whiteSpace=wrap;html=1;" parent="WIyWlLk6GJQsqaUBKTNV-1" vertex="1">
          <mxGeometry x="1830" y="1180.5" width="120" height="60" as="geometry" />
        </mxCell>
        <mxCell id="EW10OQYBDatXseVUmCqM-58" value="" style="edgeStyle=orthogonalEdgeStyle;rounded=0;orthogonalLoop=1;jettySize=auto;html=1;" parent="WIyWlLk6GJQsqaUBKTNV-1" source="EW10OQYBDatXseVUmCqM-56" target="EW10OQYBDatXseVUmCqM-57" edge="1">
          <mxGeometry relative="1" as="geometry" />
        </mxCell>
        <mxCell id="EW10OQYBDatXseVUmCqM-59" value="是" style="edgeLabel;html=1;align=center;verticalAlign=middle;resizable=0;points=[];" parent="EW10OQYBDatXseVUmCqM-58" vertex="1" connectable="0">
          <mxGeometry x="-0.2032" y="-1" relative="1" as="geometry">
            <mxPoint as="offset" />
          </mxGeometry>
        </mxCell>
        <mxCell id="D5kf2ewFrjv8ZklRDmJV-5" style="edgeStyle=orthogonalEdgeStyle;rounded=0;orthogonalLoop=1;jettySize=auto;html=1;entryX=0;entryY=0.5;entryDx=0;entryDy=0;" edge="1" parent="WIyWlLk6GJQsqaUBKTNV-1" source="EW10OQYBDatXseVUmCqM-56" target="EW10OQYBDatXseVUmCqM-64">
          <mxGeometry relative="1" as="geometry" />
        </mxCell>
        <mxCell id="D5kf2ewFrjv8ZklRDmJV-6" value="否" style="edgeLabel;html=1;align=center;verticalAlign=middle;resizable=0;points=[];" vertex="1" connectable="0" parent="D5kf2ewFrjv8ZklRDmJV-5">
          <mxGeometry x="-0.1593" y="2" relative="1" as="geometry">
            <mxPoint as="offset" />
          </mxGeometry>
        </mxCell>
        <mxCell id="EW10OQYBDatXseVUmCqM-56" value="是否有B号段数据" style="rhombus;whiteSpace=wrap;html=1;" parent="WIyWlLk6GJQsqaUBKTNV-1" vertex="1">
          <mxGeometry x="1490" y="1575.75" width="210" height="70" as="geometry" />
        </mxCell>
        <mxCell id="D5kf2ewFrjv8ZklRDmJV-7" style="edgeStyle=orthogonalEdgeStyle;rounded=0;orthogonalLoop=1;jettySize=auto;html=1;entryX=0;entryY=0.5;entryDx=0;entryDy=0;" edge="1" parent="WIyWlLk6GJQsqaUBKTNV-1" source="EW10OQYBDatXseVUmCqM-57" target="D5kf2ewFrjv8ZklRDmJV-0">
          <mxGeometry relative="1" as="geometry">
            <Array as="points">
              <mxPoint x="1595" y="1944" />
            </Array>
          </mxGeometry>
        </mxCell>
        <mxCell id="EW10OQYBDatXseVUmCqM-57" value="apcu_cas，将A号段最小最大值置为B号段的；&lt;br&gt;apcu_cas，将B号段置为0" style="whiteSpace=wrap;html=1;" parent="WIyWlLk6GJQsqaUBKTNV-1" vertex="1">
          <mxGeometry x="1460" y="1715.75" width="270" height="60" as="geometry" />
        </mxCell>
        <mxCell id="EW10OQYBDatXseVUmCqM-75" value="" style="edgeStyle=orthogonalEdgeStyle;rounded=0;orthogonalLoop=1;jettySize=auto;html=1;" parent="WIyWlLk6GJQsqaUBKTNV-1" source="EW10OQYBDatXseVUmCqM-63" target="EW10OQYBDatXseVUmCqM-74" edge="1">
          <mxGeometry relative="1" as="geometry" />
        </mxCell>
        <mxCell id="EW10OQYBDatXseVUmCqM-76" value="否，阻塞，等待A号段填充完毕" style="edgeLabel;html=1;align=center;verticalAlign=middle;resizable=0;points=[];" parent="EW10OQYBDatXseVUmCqM-75" vertex="1" connectable="0">
          <mxGeometry x="-0.0855" y="-3" relative="1" as="geometry">
            <mxPoint as="offset" />
          </mxGeometry>
        </mxCell>
        <mxCell id="D5kf2ewFrjv8ZklRDmJV-3" value="" style="edgeStyle=orthogonalEdgeStyle;rounded=0;orthogonalLoop=1;jettySize=auto;html=1;" edge="1" parent="WIyWlLk6GJQsqaUBKTNV-1" source="EW10OQYBDatXseVUmCqM-63" target="EW10OQYBDatXseVUmCqM-56">
          <mxGeometry relative="1" as="geometry" />
        </mxCell>
        <mxCell id="D5kf2ewFrjv8ZklRDmJV-4" value="是" style="edgeLabel;html=1;align=center;verticalAlign=middle;resizable=0;points=[];" vertex="1" connectable="0" parent="D5kf2ewFrjv8ZklRDmJV-3">
          <mxGeometry x="-0.0384" y="1" relative="1" as="geometry">
            <mxPoint as="offset" />
          </mxGeometry>
        </mxCell>
        <mxCell id="EW10OQYBDatXseVUmCqM-63" value="加文件锁LOCK-2是否成功" style="rhombus;whiteSpace=wrap;html=1;" parent="WIyWlLk6GJQsqaUBKTNV-1" vertex="1">
          <mxGeometry x="1490" y="1360" width="210" height="120" as="geometry" />
        </mxCell>
        <mxCell id="EW10OQYBDatXseVUmCqM-68" value="" style="edgeStyle=orthogonalEdgeStyle;rounded=0;orthogonalLoop=1;jettySize=auto;html=1;entryX=0.5;entryY=0;entryDx=0;entryDy=0;" parent="WIyWlLk6GJQsqaUBKTNV-1" source="EW10OQYBDatXseVUmCqM-64" edge="1" target="EW10OQYBDatXseVUmCqM-70">
          <mxGeometry relative="1" as="geometry">
            <mxPoint x="1975" y="1680.75" as="targetPoint" />
          </mxGeometry>
        </mxCell>
        <mxCell id="EW10OQYBDatXseVUmCqM-64" value="请求guid服务端获取新的号段" style="whiteSpace=wrap;html=1;" parent="WIyWlLk6GJQsqaUBKTNV-1" vertex="1">
          <mxGeometry x="1915" y="1580.75" width="120" height="60" as="geometry" />
        </mxCell>
        <mxCell id="EW10OQYBDatXseVUmCqM-73" value="" style="edgeStyle=orthogonalEdgeStyle;rounded=0;orthogonalLoop=1;jettySize=auto;html=1;" parent="WIyWlLk6GJQsqaUBKTNV-1" source="EW10OQYBDatXseVUmCqM-70" target="EW10OQYBDatXseVUmCqM-72" edge="1">
          <mxGeometry relative="1" as="geometry" />
        </mxCell>
        <mxCell id="EW10OQYBDatXseVUmCqM-70" value="回写A号段的最小最大值数据到apcu缓存中" style="whiteSpace=wrap;html=1;" parent="WIyWlLk6GJQsqaUBKTNV-1" vertex="1">
          <mxGeometry x="1840" y="1690.75" width="270" height="60" as="geometry" />
        </mxCell>
        <mxCell id="D5kf2ewFrjv8ZklRDmJV-1" value="" style="edgeStyle=orthogonalEdgeStyle;rounded=0;orthogonalLoop=1;jettySize=auto;html=1;" edge="1" parent="WIyWlLk6GJQsqaUBKTNV-1" source="EW10OQYBDatXseVUmCqM-72" target="D5kf2ewFrjv8ZklRDmJV-0">
          <mxGeometry relative="1" as="geometry" />
        </mxCell>
        <mxCell id="EW10OQYBDatXseVUmCqM-72" value="释放文件锁" style="whiteSpace=wrap;html=1;" parent="WIyWlLk6GJQsqaUBKTNV-1" vertex="1">
          <mxGeometry x="1915" y="1800.75" width="120" height="60" as="geometry" />
        </mxCell>
        <mxCell id="EW10OQYBDatXseVUmCqM-74" value="apcu_add A号段，加一，返回唯一的id" style="whiteSpace=wrap;html=1;" parent="WIyWlLk6GJQsqaUBKTNV-1" vertex="1">
          <mxGeometry x="1980" y="1389.9999999999998" width="120" height="60" as="geometry" />
        </mxCell>
        <mxCell id="D5kf2ewFrjv8ZklRDmJV-0" value="返回A号段里的唯一的id" style="whiteSpace=wrap;html=1;" vertex="1" parent="WIyWlLk6GJQsqaUBKTNV-1">
          <mxGeometry x="1915" y="1914.25" width="120" height="60" as="geometry" />
        </mxCell>
      </root>
    </mxGraphModel>
  </diagram>
</mxfile>
